# xmcd CD database file
#
# Track frame offsets:
#	150
#	36237
#	72992
#	96972
#	126167
#	153857
#	180409
#	211392
#
# Disc length: 3260 seconds
#
# Revision: 0
# Processed by: cddbd v1.5.1PL2 Copyright (c) Steve Scherf et al.
# Submitted via: CDex 1.60beta1
#
DISCID=690cba08
DTITLE=小宅珠実 - Hi-Fly
DYEAR=2002
DGENRE=Jazz
TTITLE0=Naima (John Coltrane)
TTITLE1=Skating In Central Park (John Lewis)
TTITLE2=Sabia (Antonio Carlos Jobim)
TTITLE3=Hi-Fly (Randy Weston)
TTITLE4=If We Never Meet Again (Louis Armstrong)
TTITLE5=Bebop (Dizzy Gillespie)
TTITLE6=You Must Believe In Spring (Michel Legrand)
TTITLE7=Tanga (Dizzy Gillespie)
EXTD=YEAR: 2002
EXTT0=
EXTT1=
EXTT2=
EXTT3=
EXTT4=
EXTT5=
EXTT6=
EXTT7=
PLAYORDER=
